HIERARCHY
ROOT Hips
{
 OFFSET 0.000000 0.000000 0.000000
 CHANNELS 6 Xposition Yposition Zposition Yrotation Xrotation Zrotation
 JOINT Chest
 {
  OFFSET 0.000000 9.585900 0.002600
  CHANNELS 3 Yrotation Xrotation Zrotation
  JOINT Chest2
  {
   OFFSET 0.000000 9.601200 -0.005300
   CHANNELS 3 Yrotation Xrotation Zrotation
   JOINT Chest3
   {
    OFFSET 0.000000 9.561800 0.000000
    CHANNELS 3 Yrotation Xrotation Zrotation
    JOINT Chest4
    {
     OFFSET 0.000000 9.552100 0.000000
     CHANNELS 3 Yrotation Xrotation Zrotation
     JOINT Neck
     {
      OFFSET 0.000000 14.453000 0.000000
      CHANNELS 3 Yrotation Xrotation Zrotation
      JOINT Head
      {
       OFFSET 0.000000 8.936500 -0.011300
       CHANNELS 3 Yrotation Xrotation Zrotation
       End Site
       {
        OFFSET 0.000000 17.073600 -0.006000
       }
      }
     }
     JOINT RightCollar
     {
      OFFSET -2.921100 9.558500 0.000000
      CHANNELS 3 Yrotation Xrotation Zrotation
      JOINT RightShoulder
      {
       OFFSET -13.519700 0.000000 0.000000
       CHANNELS 3 Yrotation Xrotation Zrotation
       JOINT RightElbow
       {
        OFFSET 0.000000 -29.696600 0.000000
        CHANNELS 3 Yrotation Xrotation Zrotation
        JOINT RightWrist
        {
         OFFSET 0.000000 -24.004700 0.000000
         CHANNELS 3 Yrotation Xrotation Zrotation
         End Site
         {
          OFFSET 0.000000 -17.728500 0.000000
         }
        }
       }
      }
     }
     JOINT LeftCollar
     {
      OFFSET 2.921100 9.558500 0.000000
      CHANNELS 3 Yrotation Xrotation Zrotation
      JOINT LeftShoulder
      {
       OFFSET 13.519700 0.000000 0.000000
       CHANNELS 3 Yrotation Xrotation Zrotation
       JOINT LeftElbow
       {
        OFFSET 0.000000 -29.696600 0.000000
        CHANNELS 3 Yrotation Xrotation Zrotation
        JOINT LeftWrist
        {
         OFFSET 0.000000 -24.004700 0.000000
         CHANNELS 3 Yrotation Xrotation Zrotation
         End Site
         {
          OFFSET 0.000000 -17.728500 0.000000
         }
        }
       }
      }
     }
    }
   }
  }
 }
 JOINT RightHip
 {
  OFFSET -7.771700 -0.012900 -0.001300
  CHANNELS 3 Yrotation Xrotation Zrotation
  JOINT RightKnee
  {
   OFFSET 0.000000 -40.869800 0.001200
   CHANNELS 3 Yrotation Xrotation Zrotation
   JOINT RightAnkle
   {
    OFFSET 0.000000 -39.717900 0.002100
    CHANNELS 3 Yrotation Xrotation Zrotation
    JOINT RightToe
    {
     OFFSET 0.000000 -4.965400 11.033500
     CHANNELS 3 Yrotation Xrotation Zrotation
     End Site
     {
      OFFSET 0.000000 -1.423100 5.872300
     }
    }
   }
  }
 }
 JOINT LeftHip
 {
  OFFSET 7.771700 -0.012900 -0.001300
  CHANNELS 3 Yrotation Xrotation Zrotation
  JOINT LeftKnee
  {
   OFFSET 0.000000 -40.869800 0.001200
   CHANNELS 3 Yrotation Xrotation Zrotation
   JOINT LeftAnkle
   {
    OFFSET 0.000000 -39.717900 0.002100
    CHANNELS 3 Yrotation Xrotation Zrotation
    JOINT LeftToe
    {
     OFFSET 0.000000 -4.965400 11.033500
     CHANNELS 3 Yrotation Xrotation Zrotation
     End Site
     {
      OFFSET 0.000000 -1.423100 5.872300
     }
    }
   }
  }
 }
}
MOTION
Frames: 9
Frame Time: 0.008333
-18.240631 55.282354 13.154917 -177.828620 -16.136330 -2.284743 -1.527122 15.980504 -0.384732 -0.119938 1.604685 0.013432 -0.200609 2.686318 0.020615 -1.050078 14.317780 0.018156 3.039568 10.953090 9.020708 1.199301 -14.118475 9.344520 1.118801 0.956043 1.434159 2.461530 -5.544489 -7.881917 -83.531767 -68.528424 113.115254 -12.459063 -16.595396 -5.786835 -6.358784 -1.301786 0.935489 0.742178 -13.142246 10.589475 62.069026 -61.187033 -104.023480 3.986170 -12.179892 4.586240 -1.862357 -58.769610 12.216769 -101.061218 88.167534 -105.545299 -10.777924 -23.273908 14.941553 0.044384 0.023355 -0.389268 9.933101 -55.310223 -5.967855 110.487009 77.068900 107.831556 -7.717000 -23.799425 1.943009 0.129236 0.358010 0.033737
-18.247360 55.276083 13.161442 -177.815022 -16.137496 -2.262149 -1.544551 15.956938 -0.401147 -0.107247 1.585125 0.025129 -0.189671 2.681637 0.026832 -1.036275 14.339270 0.020869 2.991444 10.952576 9.014481 1.163989 -14.263338 9.415836 1.097735 0.964024 1.423758 2.524487 -5.636079 -7.849801 -83.440026 -68.553215 112.970094 -12.463512 -16.577505 -5.821381 -6.342227 -1.330714 0.949618 0.683943 -13.086580 10.580949 62.007616 -61.198556 -104.019620 3.993540 -12.188246 4.585007 -1.839645 -58.782170 12.160964 -101.509409 88.177584 -105.991228 -10.781673 -23.245487 14.955924 0.041725 -0.010104 -0.321600 9.985172 -55.311733 -6.047957 110.461377 77.065280 107.829683 -7.735988 -23.811831 1.934710 0.155007 0.380644 0.050205
-18.250280 55.271589 13.166903 -177.824576 -16.156727 -2.255195 -1.524187 15.949504 -0.391083 -0.103460 1.576298 0.032296 -0.196951 2.703615 0.016339 -1.007941 14.328805 0.040370 2.958454 10.882044 9.036958 1.111222 -14.310067 9.450347 1.085652 0.969706 1.415019 2.534642 -5.669268 -7.828287 -83.559121 -68.550162 113.110304 -12.454907 -16.527955 -5.891307 -6.316865 -1.359840 0.961432 0.623479 -13.034576 10.579135 61.935541 -61.204576 -104.002820 4.002750 -12.232556 4.608997 -1.846312 -58.772405 12.137984 -101.828141 88.203541 -106.302926 -10.720712 -23.215705 14.930263 0.037572 -0.042780 -0.262573 10.015246 -55.295685 -6.068738 110.432482 77.068760 107.811353 -7.735750 -23.814200 1.934629 0.161606 0.391732 0.059298
-18.251705 55.268580 13.172055 -177.840405 -16.187744 -2.254231 -1.489469 15.917605 -0.352463 -0.114273 1.615733 0.013095 -0.195138 2.712883 0.013998 -0.982165 14.317693 0.059383 2.922877 10.827695 9.056572 1.060847 -14.341911 9.475795 1.097719 0.956978 1.418308 2.522797 -5.675655 -7.813947 -83.489226 -68.577332 113.008246 -12.477886 -16.562021 -5.848029 -6.288697 -1.384755 0.969103 0.564958 -12.982373 10.661509 61.987722 -61.122473 -104.094746 3.996406 -12.147095 4.542231 -1.841183 -58.748684 12.141217 -101.531091 88.182037 -105.997266 -10.711286 -23.175754 14.924549 0.035251 -0.062128 -0.207803 10.041882 -55.269890 -6.073432 110.419670 77.069094 107.809618 -7.735877 -23.817215 1.938328 0.162086 0.399844 0.058888
-18.252793 55.267020 13.176552 -177.863896 -16.231103 -2.251653 -1.461175 15.943556 -0.341361 -0.115947 1.624405 0.009627 -0.186505 2.690811 0.026829 -0.958865 14.320805 0.072138 2.882303 10.788393 9.070215 1.013596 -14.360865 9.498017 1.112057 0.948802 1.422679 2.490463 -5.660784 -7.817636 -83.615878 -68.534975 113.153693 -12.484756 -16.566876 -5.849093 -6.263349 -1.407087 0.976666 0.511489 -12.934074 10.711442 62.001245 -61.066238 -104.150008 4.004329 -12.085735 4.501716 -1.848721 -58.707668 12.145568 -101.148451 88.167633 -105.617838 -10.626857 -23.150080 14.904607 0.033375 -0.074750 -0.167865 10.071898 -55.230724 -6.071812 110.401354 77.069492 107.802428 -7.736411 -23.816745 1.939193 0.165456 0.403491 0.062830
-18.256246 55.265255 13.185232 -177.868117 -16.253878 -2.237386 -1.455667 15.948976 -0.347005 -0.109542 1.608636 0.018157 -0.183226 2.692769 0.028686 -0.958598 14.337036 0.069809 2.862120 10.749110 9.090128 0.966967 -14.370855 9.516656 1.143064 0.923832 1.435829 2.459575 -5.639967 -7.818457 -83.653433 -68.501793 113.186928 -12.484398 -16.575409 -5.850742 -6.224057 -1.437601 0.995419 0.461893 -12.890822 10.743817 61.846653 -61.045781 -104.087967 4.008319 -12.112004 4.507576 -1.888321 -58.683700 12.144395 -100.444880 88.099701 -104.937761 -10.478643 -23.132178 14.884196 0.031501 -0.080190 -0.138406 10.108957 -55.207626 -6.101609 110.323357 77.070316 107.727329 -7.743914 -23.806618 1.948220 0.166692 0.410453 0.064459
-18.258369 55.265151 13.191439 -177.876758 -16.295372 -2.228023 -1.425437 15.919165 -0.316001 -0.106280 1.609646 0.020218 -0.177662 2.694307 0.032200 -0.981494 14.388739 0.047085 2.843106 10.717180 9.109388 0.921936 -14.366079 9.527457 1.175110 0.909172 1.449740 2.450447 -5.642604 -7.803555 -83.604085 -68.516284 113.098021 -12.505322 -16.591514 -5.848290 -6.188276 -1.461724 1.010528 0.417278 -12.852465 10.778014 61.741734 -61.016021 -104.054958 4.008944 -12.106937 4.504293 -1.892372 -58.641278 12.146347 -99.922146 88.061724 -104.423008 -10.464228 -23.109543 14.890405 0.012150 -0.081119 -0.119371 10.136043 -55.168332 -6.110632 110.288438 77.072640 107.695218 -7.753733 -23.795398 1.956337 0.164089 0.407089 0.067906
-18.259911 55.266648 13.194768 -177.883466 -16.355612 -2.220658 -1.413506 15.962297 -0.314753 -0.105486 1.609765 0.020777 -0.169546 2.679276 0.042461 -0.964362 14.388420 0.056608 2.805064 10.712379 9.115305 0.883016 -14.353735 9.537863 1.186783 0.919703 1.455088 2.469355 -5.650627 -7.744230 -83.564831 -68.574991 112.993280 -12.526827 -16.601428 -5.852065 -6.170803 -1.469233 1.014618 0.377756 -12.814590 10.813428 61.732366 -60.971668 -104.081582 4.006088 -12.046616 4.481581 -1.879644 -58.577967 12.138204 -99.565583 88.041414 -104.067906 -10.480653 -23.093730 14.901934 0.011714 -0.083202 -0.115254 10.150100 -55.110263 -6.106035 110.262223 77.075979 107.669280 -7.760020 -23.778928 1.963464 0.161322 0.398628 0.068881
-18.259862 55.268426 13.199376 -177.901903 -16.406865 -2.216392 -1.389105 15.996795 -0.306347 -0.104783 1.609858 0.021360 -0.168615 2.679983 0.043873 -0.939485 14.373157 0.077529 2.772350 10.702532 9.134582 0.850166 -14.322735 9.527920 1.198790 0.931668 1.454681 2.451407 -5.636216 -7.724865 -83.598211 -68.563207 112.990910 -12.529122 -16.586983 -5.856851 -6.151589 -1.477800 1.012719 0.340606 -12.778046 10.850727 61.615705 -60.950468 -104.029298 4.007152 -12.033824 4.466827 -1.894205 -58.521601 12.163670 -99.106828 88.029158 -103.619502 -10.503552 -23.077569 14.910400 0.020390 -0.064174 -0.078645 10.159851 -55.061691 -6.090038 110.252571 77.077547 107.660007 -7.759587 -23.776283 1.963591 0.161369 0.394279 0.069651
